<?xml version="1.0" encoding="utf-8"?>
<!-- Generator: Adobe Illustrator 24.2.1, SVG Export Plug-In . SVG Version: 6.00 Build 0)  -->
<svg
  version="1.1"
  id="Capa_1"
  xmlns="http://www.w3.org/2000/svg"
  xmlns:xlink="http://www.w3.org/1999/xlink"
  x="0px"
  y="0px"
  viewBox="0 0 916.3 1260.1"
  style="enable-background: new 0 0 916.3 1260.1"
  xml:space="preserve"
>
  <style type="text/css">
    .st0 {
      fill: #e6e6e6;
    }
    .st1 {
      fill: #ffffff;
    }
    .st2 {
      fill: #155177;
    }
    .st3 {
      fill: #3f3d56;
    }
    .st4 {
      fill: #2f2e41;
    }
    .st5 {
      fill: #ffb6b6;
    }
    .st6 {
      fill: #ffb8b8;
    }
    .st7 {
      fill: #cacaca;
    }
    .st8 {
      font-family: "Noteworthy-Light";
    }
    .st9 {
      font-size: 94.0285px;
    }
  </style>
  <rect
    id="b93b1ef9-49b5-4354-905b-d9dddde45a10"
    x="14.9"
    y="346.7"
    class="st0"
    width="644.7"
    height="412.9"
  />
  <rect
    id="ef7485f9-8ecd-46d9-949e-abdd8aa9e360"
    x="33.3"
    y="398.5"
    class="st1"
    width="607.9"
    height="336.7"
  />
  <rect
    id="b4c2a7ec-beab-40bc-b587-23a202562f78"
    x="14.6"
    y="346.3"
    class="st2"
    width="644.7"
    height="27.4"
  />
  <circle
    id="bd6d3ebf-cb6f-4fcb-b7cd-ad5a287d3324"
    class="st1"
    cx="35"
    cy="360.3"
    r="5.1"
  />
  <circle
    id="efb1158e-7a7d-4adb-9063-fc7dc50c76d5"
    class="st1"
    cx="54.2"
    cy="360.3"
    r="5.1"
  />
  <circle
    id="b51f9e19-f36b-4f29-afd5-008bb0fc20dd"
    class="st1"
    cx="73.5"
    cy="360.3"
    r="5.1"
  />
  <rect
    id="b636d421-4358-445b-b124-1d058e78c733"
    x="108.1"
    y="426.2"
    class="st0"
    width="118.9"
    height="129"
  />
  <rect
    id="ab9c902d-64a9-4a2b-a9ec-6dc7022c80f6"
    x="277.8"
    y="426.2"
    class="st0"
    width="118.9"
    height="129"
  />
  <rect
    id="f4a232af-026e-479b-8040-5c62e5965d9e"
    x="447.5"
    y="426.2"
    class="st0"
    width="118.9"
    height="129"
  />
  <rect
    id="ada16aa4-f84d-4851-87ee-a2852d96226a"
    x="108.1"
    y="578.5"
    class="st0"
    width="118.9"
    height="129"
  />
  <rect
    id="ebfcbe07-3b81-4d69-a4f5-6a8318d20e8d"
    x="277.8"
    y="578.5"
    class="st0"
    width="118.9"
    height="129"
  />
  <rect
    id="ead16b6d-d132-49a9-a42f-1f570e523a46"
    x="447.5"
    y="578.5"
    class="st0"
    width="118.9"
    height="129"
  />
  <path
    id="ab8ff6e3-f37e-4992-8347-ee905fdba816-394"
    class="st1"
    d="M306.5,611.6l21.7-8.6l2.5,42.9c0,0,4.5,13.1,3,18.2
	c0,0,1,8.6-1.5,9.1c-2.5,0.5-9.6,1.5-10.1,1s-0.5-2-0.5-2s-5.1,3.5-5.6,7.6c0,0-21.2,6.6-21.7,0.5c-0.5-6.1,10.6-11.1,10.6-11.1
	l8.6-13.1L306.5,611.6z"
  />
  <path
    id="e647835b-1773-4993-9de9-376235a5ef39-395"
    class="st1"
    d="M352.5,611.6l21.7-8.6l2.5,42.9c0,0,4.5,13.1,3,18.2
	c0,0,1,8.6-1.5,9.1c-2.5,0.5-9.6,1.5-10.1,1s-0.5-2-0.5-2s-5.1,3.5-5.6,7.6c0,0-21.2,6.6-21.7,0.5c-0.5-6.1,10.6-11.1,10.6-11.1
	l8.6-13.1L352.5,611.6z"
  />
  <path
    id="ee50e840-b8e9-4cc0-9b2e-64e12816c6e5-396"
    class="st3"
    d="M354.6,445.8c0,0-4.6,12.9,0.7,18.8l-4.5,15.4
	c0,0,15.9,47.6,11.3,54.3c0,0-16.9,8.5-50.8-3l13.8-53.4l-2-22.5l2.7-10.6l6-0.6c0,0-3.6,13.6,3,15.7c6.7,2.1,13.1-15.4,13.1-15.4
	L354.6,445.8z"
  />
  <path
    id="b668efb4-5504-4326-941b-9be143c4d030-397"
    class="st1"
    d="M141,529.3l5.8,2.4l27.9-36.6l8.8,43l5.8-1.1
	c3.7-37.1,6.8-74.9,3.1-92.7l-21.6-0.9l-9.8,31.3l-4.8,21.2L141,529.3z"
  />
  <path
    id="b699d661-049e-451c-8a7e-64343ac1c335-398"
    class="st1"
    d="M495.3,443.9c0,0-8,11.1-7.6,15.5s5.4,77.3,5.4,77.3l11.9,0.6
	l-3.5-52.5l2.9-14.2l7.2,66.1l14.6,0.4l-13-85.7l-2.5-7.6L495.3,443.9z"
  />
  <path
    id="a4f25674-ecb7-42aa-ae9a-d508200b11eb-399"
    class="st3"
    d="M540.3,622.3c-2.1-2.5-5.8-3.9-9.2-4.7
	c0.1-0.3-10.6-2.5-10.8-2.1l-4-3.2l-12.4,6.4l-7-4.8l-3.2,1.2c0.1-0.6-10.1,1.2-10.1,1.2c-1.9,0.1-4.4,0.2-7.2,0.4
	c-9.7,0.8-10.5,26-10.5,26c4.5-1.8,9.3-2.8,14.1-3l2.6,30.2c13.6-1.2,27.8,0.2,42.5,3.5l6.9-23.7l16.1-6.3
	C548.1,643.6,545.3,628.3,540.3,622.3z"
  />
  <path
    id="b6d7fb25-d94e-4ba0-9382-3f72a4c565e4-400"
    class="st1"
    d="M195,608c-1.7-2.1-4.7-3.2-7.6-3.8c0.1-0.3-8.7-2.1-8.9-1.7
	l-3.3-2.7l-10.2,5.3l-5.7-3.9l-2.7,0.9c0.1-0.5-8.3,1-8.3,1c-1.6,0.1-3.7,0.2-5.9,0.3c-8,0.6-8.7,21.4-8.7,21.4
	c3.7-1.5,7.6-2.3,11.6-2.4l2.2,60.9c11.2-1,22.9,0.2,35,2.9l5.7-55.6l13.3-5.2C201.4,625.5,199.2,612.9,195,608z"
  />
  <path
    id="abb48a01-b3b6-4bc9-9e6f-5cc93133d8eb-401"
    class="st4"
    d="M764.1,624.2h57v-30.5c0-15.7-12.8-28.5-28.5-28.5
	s-28.5,12.8-28.5,28.5V624.2z"
  />
  <path
    id="f1b40e10-dbea-4491-93e9-bf21ee1afe95-402"
    class="st5"
    d="M738.6,963.5h-12.3l-5.8-47.3h18.1L738.6,963.5z"
  />
  <path
    id="f19e2682-d3fb-40a9-8809-be7b68a78ac9-403"
    class="st4"
    d="M741.7,959.5h-24.1c-8.5,0-15.4,6.9-15.4,15.4v0.5h39.5V959.5z"
  />
  <path
    id="b3618d44-3857-42e4-aed2-10e127155f21-404"
    class="st5"
    d="M885.2,947.2l-10.7,6l-28.3-38.3l15.8-8.9L885.2,947.2z"
  />
  <path
    id="a172411a-a77d-4e4f-ac70-c8342021cfb1-405"
    class="st4"
    d="M885.9,942.1l-21,11.9l0,0c-7.4,4.2-10,13.6-5.8,21l0.2,0.4
	l34.4-19.4L885.9,942.1z"
  />
  <path
    id="bd1532c7-07e2-44c0-82ff-fc8e0d37942d-406"
    class="st4"
    d="M806.8,750.8l0.9,4.7c0,0,2.8,2.8,1.4,4.3s-0.9,8-0.9,8
	c0.8,12.1,16.6,79.9,19.4,93.2c0,0,21.8,14.2,38.8,42.1s17.5,35,17.5,35l-18.9,8L817.7,889c0,0-13.2-8-18-15.1s-34.1-80.4-34.1-80.4
	L749.1,870c0,0,0.9,27.9-3.3,45.9c-2.6,11.3-4.2,22.9-4.7,34.5l-22.2-2.4c0,0,1.4-67.2,3.8-74.3c0,0-9.9-81.8,9.9-114.5l16-42.7
	l15.7-6L806.8,750.8z"
  />
  <path
    id="e2a54528-859f-4f0e-9aca-6130773a8d3b-407"
    class="st6"
    d="M792.8,572.6c-29.8,0.5-29.8,44.9,0,45.4
	C822.7,617.5,822.7,573.1,792.8,572.6z"
  />
  <path
    id="aeace49c-5333-476f-965d-52da8fac2318-408"
    class="st4"
    d="M769.9,594.2h5.1l1.4-3.5l-0.7,3.5h27.7l-0.9-7.2l6.7,7.2h6.7
	v-3.9c0-12.7-10.3-23-23-23.1c-12.7,0-23,10.3-23.1,23l0,0v0L769.9,594.2z"
  />
  <path
    id="aa5a3aa9-e50b-4b43-b42d-0c1415925835-409"
    class="st3"
    d="M762.1,631.3l56.4,0.5l-11.9,120.9c0,0-66-3.5-66-23.6l6.2-17.9
	L762.1,631.3z"
  />
  <path
    id="aca4d347-909c-4b66-b72e-6bb1477aee43-410"
    class="st5"
    d="M820.9,764.4c-3.3-4-2.7-9.9,1.3-13.2c0.4-0.3,0.9-0.7,1.4-0.9
	l-2.5-21.3l12.6-4.6l3,30.1c2.2,4.7,0.2,10.3-4.5,12.5C828.3,768.8,823.6,767.7,820.9,764.4z"
  />
  <path
    id="eab38d24-ad2d-4cbe-aaaa-db975580c866-411"
    class="st3"
    d="M811.1,642.2l7.4-10.4c0,0,5.1-1.1,11.1,5.9s9.5,94.5,9.5,94.5
	l-22,5l-13-62L811.1,642.2z"
  />
  <polygon
    class="st1"
    points="686.7,737.1 688.4,814.8 738.7,841.4 830.3,825 832.6,744.2 774.5,723.8 "
  />
  <path
    class="st7"
    d="M738.6,842.2l-51-26.9l-1.7-78.9l88.7-13.4l0.2,0.1l58.7,20.7l-2.3,82L738.6,842.2z M689.2,814.3l49.7,26.2
	l90.7-16.2l2.2-79.6l-57.4-20.2l-86.9,13.2L689.2,814.3z"
  />
  <polygon
    class="st7"
    points="737.6,758.1 737.4,758.1 686.4,737.8 687,736.3 737.8,756.5 832.5,743.4 832.7,745 "
  />
  <rect
    x="737.4"
    y="757.3"
    transform="matrix(0.9999 -1.216377e-02 1.216377e-02 0.9999 -9.6685 9.0383)"
    class="st7"
    width="1.6"
    height="84.1"
  />
  <polygon
    class="st7"
    points="731.1,754.1 712.8,746.7 801.2,732.6 819.5,740 "
  />
  <rect
    x="696.6"
    y="753.3"
    transform="matrix(0.3955 -0.9185 0.9185 0.3955 -280.9789 1102.9707)"
    class="st7"
    width="1.6"
    height="23.2"
  />
  <rect
    x="706.2"
    y="779.9"
    transform="matrix(0.3955 -0.9185 0.9185 0.3955 -299.5071 1127.8607)"
    class="st2"
    width="1.6"
    height="23.2"
  />
  <polygon
    class="st1"
    points="406.7,845.1 408.4,922.8 458.7,949.4 550.3,933 552.6,852.2 494.5,831.8 "
  />
  <path
    class="st7"
    d="M458.6,950.2l-51-26.9l-1.7-78.9l88.7-13.4l0.2,0.1l58.7,20.7l-2.3,82L458.6,950.2z M409.2,922.3l49.7,26.2
	l90.7-16.2l2.2-79.6l-57.4-20.2l-86.9,13.2L409.2,922.3z"
  />
  <polygon
    class="st7"
    points="457.6,866.1 457.4,866.1 406.4,845.8 407,844.3 457.8,864.5 552.5,851.4 552.7,853 "
  />
  <rect
    x="457.4"
    y="865.3"
    transform="matrix(0.9999 -1.216377e-02 1.216377e-02 0.9999 -11.0029 5.6404)"
    class="st7"
    width="1.6"
    height="84.1"
  />
  <polygon
    class="st7"
    points="446.7,860.3 432.8,854.7 521.2,840.6 535.1,846.2 "
  />
  <rect
    x="416.6"
    y="861.3"
    transform="matrix(0.3955 -0.9185 0.9185 0.3955 -549.4473 911.0858)"
    class="st7"
    width="1.6"
    height="23.2"
  />
  <rect
    x="426.2"
    y="887.9"
    transform="matrix(0.3955 -0.9185 0.9185 0.3955 -567.9756 935.9758)"
    class="st2"
    width="1.6"
    height="23.2"
  />
  <polygon
    class="st2"
    points="494.2,855.7 496.1,946 554.5,976.8 660.9,957.8 663.5,864 596,840.3 "
  />
  <path
    class="st3"
    d="M554.3,977.8l-59.2-31.3l-1.9-91.6l102.9-15.6l0.2,0.1l68.1,24l-2.7,95.2L554.3,977.8z M497,945.4l57.7,30.5
	L660,957l2.6-92.4L596,841.2l-100.8,15.3L497,945.4z"
  />
  <polygon
    class="st3"
    points="553.2,880.2 553,880.1 493.8,856.6 494.5,854.8 553.4,878.3 663.4,863.1 663.6,865 "
  />
  <rect
    x="553"
    y="879.2"
    transform="matrix(0.9999 -1.216377e-02 1.216377e-02 0.9999 -11.2473 6.806)"
    class="st3"
    width="1.9"
    height="97.6"
  />
  <polygon
    class="st3"
    points="541.5,873.4 524.4,866.9 627,850.5 644.1,857.1 "
  />
  <rect
    x="505.6"
    y="874.6"
    transform="matrix(0.3955 -0.9185 0.9185 0.3955 -509.4652 1002.114)"
    class="st3"
    width="1.9"
    height="26.9"
  />
  <rect
    x="516.8"
    y="905.4"
    transform="matrix(0.3955 -0.9185 0.9185 0.3955 -530.9736 1031.0073)"
    class="st1"
    width="1.9"
    height="26.9"
  />
  <path
    id="af1e2e82-f248-43bd-a869-489ddf745161-412"
    class="st5"
    d="M715.3,749.9c4.7-2.2,6.7-7.8,4.5-12.5c-0.2-0.5-0.5-1-0.8-1.4
	l11.4-18.1l-9.3-9.6l-15.8,25.8c-4,3.3-4.7,9.2-1.4,13.3C706.6,750.7,711.3,751.8,715.3,749.9L715.3,749.9z"
  />
  <path
    id="ed6195a6-5e50-4e12-8380-54bfefa6b2ae-413"
    class="st3"
    d="M770.7,636.1l-8.2-5.4c0,0-6.3,1.4-13,14.3
	s-33.8,70.7-33.8,70.7l11.1,11.3l29.7-45.3L770.7,636.1z"
  />
  <text transform="matrix(1.08 0 0 1 93.2078 875.6728)" class="st8 st9">
    Deoslv
  </text>
</svg>
